<mxfile host="app.diagrams.net" agent="Mozilla/5.0 (Macintosh; Intel Mac OS X 10_15_7) AppleWebKit/605.1.15 (KHTML, like Gecko) Version/17.2.1 Safari/605.1.15" version="24.8.6">
  <diagram name="Sida-1" id="aEJ8TClAQQ043p-pL9k2">
    <mxGraphModel dx="1098" dy="2208" grid="0" gridSize="10" guides="1" tooltips="1" connect="1" arrows="1" fold="1" page="1" pageScale="1" pageWidth="1200" pageHeight="1600" background="none" math="0" shadow="0">
      <root>
        <mxCell id="0" />
        <mxCell id="1" parent="0" />
        <mxCell id="VA6Ig2lXi64m7r3Iy_jO-18" value="" style="whiteSpace=wrap;html=1;aspect=fixed;fillColor=#dae8fc;strokeColor=#6c8ebf;fillStyle=auto;opacity=60;rounded=0;glass=1;" vertex="1" parent="1">
          <mxGeometry x="71" y="-962.0000000000001" width="358" height="358" as="geometry" />
        </mxCell>
        <mxCell id="VA6Ig2lXi64m7r3Iy_jO-38" value="" style="shape=card;whiteSpace=wrap;html=1;rotation=-91;direction=east;flipV=1;" vertex="1" parent="1">
          <mxGeometry x="115" y="-1005" width="25.75" height="113" as="geometry" />
        </mxCell>
        <mxCell id="VA6Ig2lXi64m7r3Iy_jO-21" value="&lt;span style=&quot;font-size: 12.000001px; text-align: center;&quot;&gt;saveFile&lt;/span&gt;" style="text;whiteSpace=wrap;html=1;fontStyle=1" vertex="1" parent="1">
          <mxGeometry x="86" y="-962" width="90" height="40" as="geometry" />
        </mxCell>
        <mxCell id="VA6Ig2lXi64m7r3Iy_jO-63" value="user" style="shape=umlActor;verticalLabelPosition=bottom;verticalAlign=top;html=1;fontStyle=1" vertex="1" parent="1">
          <mxGeometry x="156.25" y="-922" width="20" height="45" as="geometry" />
        </mxCell>
        <mxCell id="VA6Ig2lXi64m7r3Iy_jO-64" value="" style="endArrow=none;html=1;rounded=0;dashed=1;" edge="1" parent="1" source="VA6Ig2lXi64m7r3Iy_jO-67">
          <mxGeometry relative="1" as="geometry">
            <mxPoint x="166.25" y="-837" as="sourcePoint" />
            <mxPoint x="166.25" y="-687" as="targetPoint" />
          </mxGeometry>
        </mxCell>
        <mxCell id="VA6Ig2lXi64m7r3Iy_jO-65" value="" style="ellipse;whiteSpace=wrap;html=1;aspect=fixed;fillColor=#dae8fc;strokeColor=#6c8ebf;" vertex="1" parent="1">
          <mxGeometry x="153.75" y="-672" width="25" height="25" as="geometry" />
        </mxCell>
        <mxCell id="VA6Ig2lXi64m7r3Iy_jO-66" value="" style="endArrow=none;html=1;rounded=0;dashed=1;dashPattern=8 8;" edge="1" parent="1" target="VA6Ig2lXi64m7r3Iy_jO-67">
          <mxGeometry relative="1" as="geometry">
            <mxPoint x="166.25" y="-857" as="sourcePoint" />
            <mxPoint x="166.25" y="-687" as="targetPoint" />
          </mxGeometry>
        </mxCell>
        <mxCell id="VA6Ig2lXi64m7r3Iy_jO-67" value="user" style="text;html=1;align=center;verticalAlign=middle;whiteSpace=wrap;rounded=0;fontStyle=1" vertex="1" parent="1">
          <mxGeometry x="136.25" y="-697" width="60" height="30" as="geometry" />
        </mxCell>
        <mxCell id="VA6Ig2lXi64m7r3Iy_jO-68" value="" style="endArrow=none;html=1;rounded=0;entryX=0.5;entryY=1;entryDx=0;entryDy=0;" edge="1" parent="1" target="VA6Ig2lXi64m7r3Iy_jO-65">
          <mxGeometry width="50" height="50" relative="1" as="geometry">
            <mxPoint x="166.25" y="-637" as="sourcePoint" />
            <mxPoint x="526.25" y="-787" as="targetPoint" />
          </mxGeometry>
        </mxCell>
        <mxCell id="VA6Ig2lXi64m7r3Iy_jO-69" value="" style="endArrow=none;html=1;rounded=0;" edge="1" parent="1">
          <mxGeometry width="50" height="50" relative="1" as="geometry">
            <mxPoint x="151.25" y="-637.42" as="sourcePoint" />
            <mxPoint x="181.25" y="-637.42" as="targetPoint" />
          </mxGeometry>
        </mxCell>
        <mxCell id="VA6Ig2lXi64m7r3Iy_jO-70" value="" style="endArrow=classic;html=1;rounded=0;dashed=1;dashPattern=1 2;fontStyle=0" edge="1" parent="1">
          <mxGeometry width="50" height="50" relative="1" as="geometry">
            <mxPoint x="166.25" y="-827" as="sourcePoint" />
            <mxPoint x="316.25" y="-827" as="targetPoint" />
          </mxGeometry>
        </mxCell>
        <mxCell id="VA6Ig2lXi64m7r3Iy_jO-71" value="handleEvent(save)" style="edgeLabel;html=1;align=center;verticalAlign=middle;resizable=0;points=[];" vertex="1" connectable="0" parent="VA6Ig2lXi64m7r3Iy_jO-70">
          <mxGeometry x="-0.2443" y="3" relative="1" as="geometry">
            <mxPoint as="offset" />
          </mxGeometry>
        </mxCell>
        <mxCell id="VA6Ig2lXi64m7r3Iy_jO-72" value="&lt;b&gt;textEditor&lt;/b&gt;" style="rounded=1;whiteSpace=wrap;html=1;" vertex="1" parent="1">
          <mxGeometry x="286.25" y="-887" width="60" height="30" as="geometry" />
        </mxCell>
        <mxCell id="VA6Ig2lXi64m7r3Iy_jO-73" value="" style="endArrow=none;html=1;rounded=0;dashed=1;dashPattern=8 8;" edge="1" parent="1">
          <mxGeometry relative="1" as="geometry">
            <mxPoint x="315.83000000000004" y="-857" as="sourcePoint" />
            <mxPoint x="316.25" y="-677" as="targetPoint" />
          </mxGeometry>
        </mxCell>
        <mxCell id="VA6Ig2lXi64m7r3Iy_jO-74" value="&lt;b&gt;textEditor&lt;/b&gt;" style="rounded=1;whiteSpace=wrap;html=1;" vertex="1" parent="1">
          <mxGeometry x="286.25" y="-687" width="60" height="30" as="geometry" />
        </mxCell>
        <mxCell id="VA6Ig2lXi64m7r3Iy_jO-75" value="" style="edgeStyle=elbowEdgeStyle;elbow=horizontal;endArrow=classic;html=1;curved=0;rounded=0;endSize=8;startSize=8;verticalAlign=bottom;horizontal=1;" edge="1" parent="1">
          <mxGeometry width="50" height="50" relative="1" as="geometry">
            <mxPoint x="316.25" y="-773.4300000000001" as="sourcePoint" />
            <mxPoint x="316.25" y="-753.4300000000001" as="targetPoint" />
            <Array as="points">
              <mxPoint x="356.25" y="-773.4300000000001" />
            </Array>
          </mxGeometry>
        </mxCell>
        <mxCell id="VA6Ig2lXi64m7r3Iy_jO-76" value="saveFile()" style="edgeLabel;html=1;align=center;verticalAlign=middle;resizable=0;points=[];" vertex="1" connectable="0" parent="VA6Ig2lXi64m7r3Iy_jO-75">
          <mxGeometry x="-0.6627" relative="1" as="geometry">
            <mxPoint as="offset" />
          </mxGeometry>
        </mxCell>
        <mxCell id="VA6Ig2lXi64m7r3Iy_jO-77" value="" style="edgeStyle=elbowEdgeStyle;elbow=horizontal;endArrow=classic;html=1;curved=0;rounded=0;endSize=8;startSize=8;verticalAlign=bottom;horizontal=1;" edge="1" parent="1">
          <mxGeometry width="50" height="50" relative="1" as="geometry">
            <mxPoint x="316.25" y="-728.4300000000001" as="sourcePoint" />
            <mxPoint x="316.25" y="-708.4300000000001" as="targetPoint" />
            <Array as="points">
              <mxPoint x="356.25" y="-728.4300000000001" />
            </Array>
          </mxGeometry>
        </mxCell>
        <mxCell id="VA6Ig2lXi64m7r3Iy_jO-78" value="viewCurr()" style="edgeLabel;html=1;align=center;verticalAlign=middle;resizable=0;points=[];" vertex="1" connectable="0" parent="VA6Ig2lXi64m7r3Iy_jO-77">
          <mxGeometry x="-0.6627" y="2" relative="1" as="geometry">
            <mxPoint as="offset" />
          </mxGeometry>
        </mxCell>
        <mxCell id="VA6Ig2lXi64m7r3Iy_jO-79" value="" style="edgeStyle=elbowEdgeStyle;elbow=horizontal;endArrow=classic;html=1;curved=0;rounded=0;endSize=8;startSize=8;verticalAlign=bottom;horizontal=1;" edge="1" parent="1">
          <mxGeometry width="50" height="50" relative="1" as="geometry">
            <mxPoint x="323.75" y="-817" as="sourcePoint" />
            <mxPoint x="316.25" y="-797" as="targetPoint" />
            <Array as="points">
              <mxPoint x="363.75" y="-817" />
            </Array>
          </mxGeometry>
        </mxCell>
        <mxCell id="VA6Ig2lXi64m7r3Iy_jO-80" value="readFile()" style="edgeLabel;html=1;align=center;verticalAlign=middle;resizable=0;points=[];" vertex="1" connectable="0" parent="VA6Ig2lXi64m7r3Iy_jO-79">
          <mxGeometry x="-0.6627" relative="1" as="geometry">
            <mxPoint as="offset" />
          </mxGeometry>
        </mxCell>
      </root>
    </mxGraphModel>
  </diagram>
</mxfile>
